<svg id="Calque_1" data-name="Calque 1" xmlns="http://www.w3.org/2000/svg" viewBox="0 0 567.93 284.46"><defs><style>.cls-1{stroke:#1d1d1b;stroke-miterlimit:10;}</style></defs><polygon class="cls-1" points="35.93 0.5 35.93 213.1 0.5 213.1 0.5 283.96 35.93 283.96 71.37 283.96 106.8 283.96 106.8 0.5 35.93 0.5"/><polygon class="cls-1" points="354.83 0.5 319.4 0.5 248.53 0.5 213.1 0.5 142.23 0.5 142.23 71.37 142.23 283.96 213.1 283.96 213.1 71.37 248.53 71.37 248.53 283.96 319.4 283.96 319.4 71.37 354.83 71.37 354.83 283.96 425.7 283.96 425.7 71.37 425.7 0.5 354.83 0.5"/><polygon class="cls-1" points="532 213.1 532 0.5 461.13 0.5 461.13 283.96 496.56 283.96 532 283.96 567.43 283.96 567.43 213.1 532 213.1"/></svg>